M48
METRIC,LZ,000.000
;FILE_FORMAT=3:3
;TYPE=PLATED
;Layer: PTH_Through
;EasyEDA v6.5.57, 2026-07-18 21:38:12
;9634977947e14e55a421a7bb4936169c,e348c271af94452cba638ad1145e7fe5,10
;Gerber Generator version 0.2
;Holesize 1 = 0.305 mm
T01C0.305
;Holesize 2 = 0.889 mm
T02C0.889
;Holesize 3 = 0.901 mm
T03C0.901
;Holesize 4 = 0.915 mm
T04C0.915
;Holesize 5 = 1.000 mm
T05C1.000
;Holesize 6 = 1.101 mm
T06C1.101
%
G05
G90
T01
X083491Y040897
X068389Y053312
X065404Y056313
T02
X019431Y020574
X016891Y020574
X017653Y091821
X017653Y094361
X095885Y084455
X098425Y084455
X088646Y015875
X088646Y013335
T03
X097745Y090598G85X099945Y090598
X099945Y096598G85X097745Y096598
X094195Y093949G85X094195Y092249
T04
X071628Y095885
X074168Y095885
X076708Y095885
X079248Y095885
X034417Y010287
X031877Y010287
X029337Y010287
X026797Y010287
X099187Y030861
X099187Y028321
X099187Y025781
X099187Y023241
X014097Y072771
X014097Y075311
X014097Y077851
X014097Y080391
T05
X087122Y058420
X087122Y060960
X087122Y063500
X087122Y066040
X087122Y068580
X087122Y071120
X087122Y055880
X087122Y053340
X087122Y050800
X087122Y048260
X087122Y045720
X087122Y043180
X071882Y043180
X071882Y045720
X071882Y048260
X071882Y050800
X071882Y053340
X071882Y055880
X071882Y071120
X071882Y068580
X071882Y066040
X071882Y063500
X071882Y060960
X071882Y058420
X037846Y076835
X037846Y074295
X037846Y071755
X037846Y069215
X037846Y066675
X037846Y064135
X037846Y061595
X037846Y059055
X037846Y056515
X037846Y053975
X037846Y051435
X037846Y048895
X037846Y046355
X037846Y043815
X037846Y041275
X037846Y038735
X037846Y031115
X037846Y033655
X037846Y036195
X063206Y036195
X063206Y033655
X063206Y031115
X063206Y038735
X063206Y041275
X063206Y043815
X063206Y046355
X063206Y048895
X063206Y051435
X063206Y053975
X063206Y056515
X063206Y059055
X063206Y061595
X063206Y064135
X063206Y066675
X063206Y069215
X063206Y071755
X063206Y074295
X063206Y076835
T06
X024878Y094762
X024878Y092222
X024878Y097251
X024878Y099791
X016871Y026148
X019411Y026148
X014382Y026148
X011842Y026148
X098572Y078500
X096032Y078500
X101061Y078500
X103601Y078500
X081929Y013569
X081929Y016109
X081929Y011080
X081929Y008540
M30
