G04 Layer: TopSilkscreenLayer*
G04 EasyEDA v6.5.57, 2026-07-18 21:38:12*
G04 9634977947e14e55a421a7bb4936169c,e348c271af94452cba638ad1145e7fe5,10*
G04 Gerber Generator version 0.2*
G04 Scale: 100 percent, Rotated: No, Reflected: No *
G04 Dimensions in millimeters *
G04 leading zeros omitted , absolute positions ,4 integer and 5 decimal *
%FSLAX45Y45*%
%MOMM*%

%ADD10C,0.1524*%
%ADD11C,0.2032*%
%ADD12C,0.2540*%
%ADD13C,0.0188*%

%LPD*%
D10*
X9859136Y10593578D02*
G01*
X9859136Y10484612D01*
X9859136Y10593578D02*
G01*
X9895459Y10593578D01*
X9911206Y10588497D01*
X9921366Y10578084D01*
X9926700Y10567670D01*
X9931781Y10551921D01*
X9931781Y10526013D01*
X9926700Y10510520D01*
X9921366Y10500105D01*
X9911206Y10489692D01*
X9895459Y10484612D01*
X9859136Y10484612D01*
X10044049Y10567670D02*
G01*
X10038968Y10578084D01*
X10028554Y10588497D01*
X10018140Y10593578D01*
X9997313Y10593578D01*
X9986899Y10588497D01*
X9976484Y10578084D01*
X9971404Y10567670D01*
X9966070Y10551921D01*
X9966070Y10526013D01*
X9971404Y10510520D01*
X9976484Y10500105D01*
X9986899Y10489692D01*
X9997313Y10484612D01*
X10018140Y10484612D01*
X10028554Y10489692D01*
X10038968Y10500105D01*
X10044049Y10510520D01*
X10078338Y10572750D02*
G01*
X10088752Y10578084D01*
X10104247Y10593578D01*
X10104247Y10484612D01*
X1828800Y1789684D02*
G01*
X1828800Y1898650D01*
X1756155Y1789684D02*
G01*
X1756155Y1898650D01*
X1828800Y1841500D02*
G01*
X1756155Y1841500D01*
X1721865Y1810512D02*
G01*
X1711452Y1805178D01*
X1695704Y1789684D01*
X1695704Y1898650D01*
X1497584Y9296400D02*
G01*
X1606550Y9296400D01*
X1497584Y9369044D02*
G01*
X1606550Y9369044D01*
X1549400Y9296400D02*
G01*
X1549400Y9369044D01*
X1523492Y9408668D02*
G01*
X1518412Y9408668D01*
X1507997Y9413747D01*
X1502663Y9419081D01*
X1497584Y9429495D01*
X1497584Y9450070D01*
X1502663Y9460484D01*
X1507997Y9465818D01*
X1518412Y9470897D01*
X1528826Y9470897D01*
X1539239Y9465818D01*
X1554734Y9455404D01*
X1606550Y9403334D01*
X1606550Y9476231D01*
X9702800Y8713215D02*
G01*
X9702800Y8604250D01*
X9775443Y8713215D02*
G01*
X9775443Y8604250D01*
X9702800Y8661400D02*
G01*
X9775443Y8661400D01*
X9820147Y8713215D02*
G01*
X9877297Y8713215D01*
X9846309Y8671560D01*
X9861804Y8671560D01*
X9872218Y8666479D01*
X9877297Y8661400D01*
X9882631Y8645652D01*
X9882631Y8635237D01*
X9877297Y8619744D01*
X9866884Y8609329D01*
X9851390Y8604250D01*
X9835895Y8604250D01*
X9820147Y8609329D01*
X9815068Y8614410D01*
X9809734Y8624824D01*
X9132315Y1473200D02*
G01*
X9023350Y1473200D01*
X9132315Y1400555D02*
G01*
X9023350Y1400555D01*
X9080500Y1473200D02*
G01*
X9080500Y1400555D01*
X9132315Y1314195D02*
G01*
X9059672Y1366265D01*
X9059672Y1288287D01*
X9132315Y1314195D02*
G01*
X9023350Y1314195D01*
X4215002Y10348417D02*
G01*
X4215002Y10270439D01*
X4220083Y10254945D01*
X4230497Y10244531D01*
X4246245Y10239451D01*
X4256659Y10239451D01*
X4272152Y10244531D01*
X4282566Y10254945D01*
X4287647Y10270439D01*
X4287647Y10348417D01*
X4321936Y10327589D02*
G01*
X4332350Y10332923D01*
X4348099Y10348417D01*
X4348099Y10239451D01*
D11*
X2679065Y9331401D02*
G01*
X2774568Y9367723D01*
X2679065Y9404045D02*
G01*
X2774568Y9367723D01*
X2701670Y9502343D02*
G01*
X2692527Y9497771D01*
X2683636Y9488627D01*
X2679065Y9479483D01*
X2679065Y9461449D01*
X2683636Y9452305D01*
X2692527Y9443161D01*
X2701670Y9438589D01*
X2715386Y9434017D01*
X2737993Y9434017D01*
X2751709Y9438589D01*
X2760852Y9443161D01*
X2769997Y9452305D01*
X2774568Y9461449D01*
X2774568Y9479483D01*
X2769997Y9488627D01*
X2760852Y9497771D01*
X2751709Y9502343D01*
X2701670Y9600387D02*
G01*
X2692527Y9596069D01*
X2683636Y9586925D01*
X2679065Y9577781D01*
X2679065Y9559493D01*
X2683636Y9550603D01*
X2692527Y9541459D01*
X2701670Y9536887D01*
X2715386Y9532315D01*
X2737993Y9532315D01*
X2751709Y9536887D01*
X2760852Y9541459D01*
X2769997Y9550603D01*
X2774568Y9559493D01*
X2774568Y9577781D01*
X2769997Y9586925D01*
X2760852Y9596069D01*
X2751709Y9600387D01*
X2663570Y9132773D02*
G01*
X2654427Y9128455D01*
X2645536Y9119311D01*
X2640965Y9110167D01*
X2640965Y9091879D01*
X2645536Y9082989D01*
X2654427Y9073845D01*
X2663570Y9069273D01*
X2677286Y9064701D01*
X2699893Y9064701D01*
X2713609Y9069273D01*
X2722752Y9073845D01*
X2731897Y9082989D01*
X2736468Y9091879D01*
X2736468Y9110167D01*
X2731897Y9119311D01*
X2722752Y9128455D01*
X2713609Y9132773D01*
X2699893Y9132773D01*
X2699893Y9110167D02*
G01*
X2699893Y9132773D01*
X2640965Y9162999D02*
G01*
X2736468Y9162999D01*
X2640965Y9162999D02*
G01*
X2736468Y9226499D01*
X2640965Y9226499D02*
G01*
X2736468Y9226499D01*
X2640965Y9256471D02*
G01*
X2736468Y9256471D01*
X2640965Y9256471D02*
G01*
X2640965Y9288221D01*
X2645536Y9301937D01*
X2654427Y9311081D01*
X2663570Y9315653D01*
X2677286Y9320225D01*
X2699893Y9320225D01*
X2713609Y9315653D01*
X2722752Y9311081D01*
X2731897Y9301937D01*
X2736468Y9288221D01*
X2736468Y9256471D01*
X2692527Y9953955D02*
G01*
X2683636Y9944811D01*
X2679065Y9931095D01*
X2679065Y9912807D01*
X2683636Y9899345D01*
X2692527Y9890201D01*
X2701670Y9890201D01*
X2710815Y9894773D01*
X2715386Y9899345D01*
X2719959Y9908489D01*
X2729102Y9935667D01*
X2733420Y9944811D01*
X2737993Y9949383D01*
X2747136Y9953955D01*
X2760852Y9953955D01*
X2769997Y9944811D01*
X2774568Y9931095D01*
X2774568Y9912807D01*
X2769997Y9899345D01*
X2760852Y9890201D01*
X2679065Y9983927D02*
G01*
X2774568Y9983927D01*
X2679065Y9983927D02*
G01*
X2679065Y10015677D01*
X2683636Y10029393D01*
X2692527Y10038283D01*
X2701670Y10042855D01*
X2715386Y10047427D01*
X2737993Y10047427D01*
X2751709Y10042855D01*
X2760852Y10038283D01*
X2769997Y10029393D01*
X2774568Y10015677D01*
X2774568Y9983927D01*
X2679065Y10113721D02*
G01*
X2774568Y10077399D01*
X2679065Y10113721D02*
G01*
X2774568Y10150297D01*
X2742565Y10091115D02*
G01*
X2742565Y10136581D01*
X2654427Y9687255D02*
G01*
X2645536Y9678111D01*
X2640965Y9664395D01*
X2640965Y9646107D01*
X2645536Y9632645D01*
X2654427Y9623501D01*
X2663570Y9623501D01*
X2672715Y9628073D01*
X2677286Y9632645D01*
X2681859Y9641789D01*
X2691002Y9668967D01*
X2695320Y9678111D01*
X2699893Y9682683D01*
X2709036Y9687255D01*
X2722752Y9687255D01*
X2731897Y9678111D01*
X2736468Y9664395D01*
X2736468Y9646107D01*
X2731897Y9632645D01*
X2722752Y9623501D01*
X2663570Y9785299D02*
G01*
X2654427Y9780727D01*
X2645536Y9771583D01*
X2640965Y9762693D01*
X2640965Y9744405D01*
X2645536Y9735261D01*
X2654427Y9726117D01*
X2663570Y9721799D01*
X2677286Y9717227D01*
X2699893Y9717227D01*
X2713609Y9721799D01*
X2722752Y9726117D01*
X2731897Y9735261D01*
X2736468Y9744405D01*
X2736468Y9762693D01*
X2731897Y9771583D01*
X2722752Y9780727D01*
X2713609Y9785299D01*
X2640965Y9815271D02*
G01*
X2736468Y9815271D01*
X2736468Y9815271D02*
G01*
X2736468Y9869881D01*
D10*
X814882Y4342003D02*
G01*
X892860Y4342003D01*
X908354Y4347082D01*
X918768Y4357496D01*
X923848Y4373245D01*
X923848Y4383659D01*
X918768Y4399153D01*
X908354Y4409567D01*
X892860Y4414646D01*
X814882Y4414646D01*
X840790Y4454270D02*
G01*
X835710Y4454270D01*
X825296Y4459351D01*
X819962Y4464685D01*
X814882Y4475098D01*
X814882Y4495672D01*
X819962Y4506087D01*
X825296Y4511420D01*
X835710Y4516501D01*
X846124Y4516501D01*
X856538Y4511420D01*
X872032Y4501006D01*
X923848Y4448937D01*
X923848Y4521835D01*
D11*
X1831898Y2806064D02*
G01*
X1795576Y2901569D01*
X1759254Y2806064D02*
G01*
X1795576Y2901569D01*
X1660956Y2828670D02*
G01*
X1665528Y2819527D01*
X1674672Y2810637D01*
X1683816Y2806064D01*
X1701850Y2806064D01*
X1710994Y2810637D01*
X1720138Y2819527D01*
X1724710Y2828670D01*
X1729282Y2842387D01*
X1729282Y2864993D01*
X1724710Y2878709D01*
X1720138Y2887853D01*
X1710994Y2896996D01*
X1701850Y2901569D01*
X1683816Y2901569D01*
X1674672Y2896996D01*
X1665528Y2887853D01*
X1660956Y2878709D01*
X1562912Y2828670D02*
G01*
X1567230Y2819527D01*
X1576374Y2810637D01*
X1585518Y2806064D01*
X1603806Y2806064D01*
X1612696Y2810637D01*
X1621840Y2819527D01*
X1626412Y2828670D01*
X1630984Y2842387D01*
X1630984Y2864993D01*
X1626412Y2878709D01*
X1621840Y2887853D01*
X1612696Y2896996D01*
X1603806Y2901569D01*
X1585518Y2901569D01*
X1576374Y2896996D01*
X1567230Y2887853D01*
X1562912Y2878709D01*
X2030526Y2790570D02*
G01*
X2034844Y2781427D01*
X2043988Y2772537D01*
X2053132Y2767964D01*
X2071420Y2767964D01*
X2080310Y2772537D01*
X2089454Y2781427D01*
X2094026Y2790570D01*
X2098598Y2804287D01*
X2098598Y2826893D01*
X2094026Y2840609D01*
X2089454Y2849753D01*
X2080310Y2858896D01*
X2071420Y2863469D01*
X2053132Y2863469D01*
X2043988Y2858896D01*
X2034844Y2849753D01*
X2030526Y2840609D01*
X2030526Y2826893D01*
X2053132Y2826893D02*
G01*
X2030526Y2826893D01*
X2000300Y2767964D02*
G01*
X2000300Y2863469D01*
X2000300Y2767964D02*
G01*
X1936800Y2863469D01*
X1936800Y2767964D02*
G01*
X1936800Y2863469D01*
X1906828Y2767964D02*
G01*
X1906828Y2863469D01*
X1906828Y2767964D02*
G01*
X1875078Y2767964D01*
X1861362Y2772537D01*
X1852218Y2781427D01*
X1847646Y2790570D01*
X1843074Y2804287D01*
X1843074Y2826893D01*
X1847646Y2840609D01*
X1852218Y2849753D01*
X1861362Y2858896D01*
X1875078Y2863469D01*
X1906828Y2863469D01*
X1209344Y2819527D02*
G01*
X1218488Y2810637D01*
X1232204Y2806064D01*
X1250492Y2806064D01*
X1263954Y2810637D01*
X1273098Y2819527D01*
X1273098Y2828670D01*
X1268526Y2837814D01*
X1263954Y2842387D01*
X1254810Y2846959D01*
X1227632Y2856103D01*
X1218488Y2860420D01*
X1213916Y2864993D01*
X1209344Y2874137D01*
X1209344Y2887853D01*
X1218488Y2896996D01*
X1232204Y2901569D01*
X1250492Y2901569D01*
X1263954Y2896996D01*
X1273098Y2887853D01*
X1179372Y2806064D02*
G01*
X1179372Y2901569D01*
X1179372Y2806064D02*
G01*
X1147622Y2806064D01*
X1133906Y2810637D01*
X1125016Y2819527D01*
X1120444Y2828670D01*
X1115872Y2842387D01*
X1115872Y2864993D01*
X1120444Y2878709D01*
X1125016Y2887853D01*
X1133906Y2896996D01*
X1147622Y2901569D01*
X1179372Y2901569D01*
X1049578Y2806064D02*
G01*
X1085900Y2901569D01*
X1049578Y2806064D02*
G01*
X1013002Y2901569D01*
X1072184Y2869564D02*
G01*
X1026718Y2869564D01*
X1476044Y2781427D02*
G01*
X1485188Y2772537D01*
X1498904Y2767964D01*
X1517192Y2767964D01*
X1530654Y2772537D01*
X1539798Y2781427D01*
X1539798Y2790570D01*
X1535226Y2799714D01*
X1530654Y2804287D01*
X1521510Y2808859D01*
X1494332Y2818003D01*
X1485188Y2822320D01*
X1480616Y2826893D01*
X1476044Y2836037D01*
X1476044Y2849753D01*
X1485188Y2858896D01*
X1498904Y2863469D01*
X1517192Y2863469D01*
X1530654Y2858896D01*
X1539798Y2849753D01*
X1378000Y2790570D02*
G01*
X1382572Y2781427D01*
X1391716Y2772537D01*
X1400606Y2767964D01*
X1418894Y2767964D01*
X1428038Y2772537D01*
X1437182Y2781427D01*
X1441500Y2790570D01*
X1446072Y2804287D01*
X1446072Y2826893D01*
X1441500Y2840609D01*
X1437182Y2849753D01*
X1428038Y2858896D01*
X1418894Y2863469D01*
X1400606Y2863469D01*
X1391716Y2858896D01*
X1382572Y2849753D01*
X1378000Y2840609D01*
X1348028Y2767964D02*
G01*
X1348028Y2863469D01*
X1348028Y2863469D02*
G01*
X1293418Y2863469D01*
D10*
X10729417Y6122796D02*
G01*
X10651439Y6122796D01*
X10635945Y6117717D01*
X10625531Y6107303D01*
X10620451Y6091554D01*
X10620451Y6081140D01*
X10625531Y6065646D01*
X10635945Y6055232D01*
X10651439Y6050153D01*
X10729417Y6050153D01*
X10729417Y6005448D02*
G01*
X10729417Y5948298D01*
X10687761Y5979287D01*
X10687761Y5963793D01*
X10682681Y5953379D01*
X10677601Y5948298D01*
X10661853Y5942964D01*
X10651439Y5942964D01*
X10635945Y5948298D01*
X10625531Y5958712D01*
X10620451Y5974206D01*
X10620451Y5989701D01*
X10625531Y6005448D01*
X10630611Y6010529D01*
X10641025Y6015862D01*
D11*
X9712401Y7658735D02*
G01*
X9748723Y7563230D01*
X9785045Y7658735D02*
G01*
X9748723Y7563230D01*
X9883343Y7636129D02*
G01*
X9878771Y7645272D01*
X9869627Y7654162D01*
X9860483Y7658735D01*
X9842449Y7658735D01*
X9833305Y7654162D01*
X9824161Y7645272D01*
X9819589Y7636129D01*
X9815017Y7622412D01*
X9815017Y7599806D01*
X9819589Y7586090D01*
X9824161Y7576946D01*
X9833305Y7567803D01*
X9842449Y7563230D01*
X9860483Y7563230D01*
X9869627Y7567803D01*
X9878771Y7576946D01*
X9883343Y7586090D01*
X9981387Y7636129D02*
G01*
X9977069Y7645272D01*
X9967925Y7654162D01*
X9958781Y7658735D01*
X9940493Y7658735D01*
X9931603Y7654162D01*
X9922459Y7645272D01*
X9917887Y7636129D01*
X9913315Y7622412D01*
X9913315Y7599806D01*
X9917887Y7586090D01*
X9922459Y7576946D01*
X9931603Y7567803D01*
X9940493Y7563230D01*
X9958781Y7563230D01*
X9967925Y7567803D01*
X9977069Y7576946D01*
X9981387Y7586090D01*
X9513773Y7674229D02*
G01*
X9509455Y7683372D01*
X9500311Y7692262D01*
X9491167Y7696835D01*
X9472879Y7696835D01*
X9463989Y7692262D01*
X9454845Y7683372D01*
X9450273Y7674229D01*
X9445701Y7660512D01*
X9445701Y7637906D01*
X9450273Y7624190D01*
X9454845Y7615046D01*
X9463989Y7605903D01*
X9472879Y7601330D01*
X9491167Y7601330D01*
X9500311Y7605903D01*
X9509455Y7615046D01*
X9513773Y7624190D01*
X9513773Y7637906D01*
X9491167Y7637906D02*
G01*
X9513773Y7637906D01*
X9543999Y7696835D02*
G01*
X9543999Y7601330D01*
X9543999Y7696835D02*
G01*
X9607499Y7601330D01*
X9607499Y7696835D02*
G01*
X9607499Y7601330D01*
X9637471Y7696835D02*
G01*
X9637471Y7601330D01*
X9637471Y7696835D02*
G01*
X9669221Y7696835D01*
X9682937Y7692262D01*
X9692081Y7683372D01*
X9696653Y7674229D01*
X9701225Y7660512D01*
X9701225Y7637906D01*
X9696653Y7624190D01*
X9692081Y7615046D01*
X9682937Y7605903D01*
X9669221Y7601330D01*
X9637471Y7601330D01*
X10334955Y7645272D02*
G01*
X10325811Y7654162D01*
X10312095Y7658735D01*
X10293807Y7658735D01*
X10280345Y7654162D01*
X10271201Y7645272D01*
X10271201Y7636129D01*
X10275773Y7626985D01*
X10280345Y7622412D01*
X10289489Y7617840D01*
X10316667Y7608696D01*
X10325811Y7604379D01*
X10330383Y7599806D01*
X10334955Y7590662D01*
X10334955Y7576946D01*
X10325811Y7567803D01*
X10312095Y7563230D01*
X10293807Y7563230D01*
X10280345Y7567803D01*
X10271201Y7576946D01*
X10364927Y7658735D02*
G01*
X10364927Y7563230D01*
X10364927Y7658735D02*
G01*
X10396677Y7658735D01*
X10410393Y7654162D01*
X10419283Y7645272D01*
X10423855Y7636129D01*
X10428427Y7622412D01*
X10428427Y7599806D01*
X10423855Y7586090D01*
X10419283Y7576946D01*
X10410393Y7567803D01*
X10396677Y7563230D01*
X10364927Y7563230D01*
X10494721Y7658735D02*
G01*
X10458399Y7563230D01*
X10494721Y7658735D02*
G01*
X10531297Y7563230D01*
X10472115Y7595235D02*
G01*
X10517581Y7595235D01*
X10068255Y7683372D02*
G01*
X10059111Y7692262D01*
X10045395Y7696835D01*
X10027107Y7696835D01*
X10013645Y7692262D01*
X10004501Y7683372D01*
X10004501Y7674229D01*
X10009073Y7665085D01*
X10013645Y7660512D01*
X10022789Y7655940D01*
X10049967Y7646796D01*
X10059111Y7642479D01*
X10063683Y7637906D01*
X10068255Y7628762D01*
X10068255Y7615046D01*
X10059111Y7605903D01*
X10045395Y7601330D01*
X10027107Y7601330D01*
X10013645Y7605903D01*
X10004501Y7615046D01*
X10166299Y7674229D02*
G01*
X10161727Y7683372D01*
X10152583Y7692262D01*
X10143693Y7696835D01*
X10125405Y7696835D01*
X10116261Y7692262D01*
X10107117Y7683372D01*
X10102799Y7674229D01*
X10098227Y7660512D01*
X10098227Y7637906D01*
X10102799Y7624190D01*
X10107117Y7615046D01*
X10116261Y7605903D01*
X10125405Y7601330D01*
X10143693Y7601330D01*
X10152583Y7605903D01*
X10161727Y7615046D01*
X10166299Y7624190D01*
X10196271Y7696835D02*
G01*
X10196271Y7601330D01*
X10196271Y7601330D02*
G01*
X10250881Y7601330D01*
D10*
X6465697Y484682D02*
G01*
X6465697Y562660D01*
X6460616Y578154D01*
X6450202Y588568D01*
X6434454Y593648D01*
X6424040Y593648D01*
X6408547Y588568D01*
X6398133Y578154D01*
X6393052Y562660D01*
X6393052Y484682D01*
X6306693Y484682D02*
G01*
X6358763Y557326D01*
X6280784Y557326D01*
X6306693Y484682D02*
G01*
X6306693Y593648D01*
D11*
X8001634Y1501698D02*
G01*
X7906131Y1465376D01*
X8001634Y1429054D02*
G01*
X7906131Y1465376D01*
X7979029Y1330756D02*
G01*
X7988172Y1335328D01*
X7997063Y1344472D01*
X8001634Y1353616D01*
X8001634Y1371650D01*
X7997063Y1380794D01*
X7988172Y1389938D01*
X7979029Y1394510D01*
X7965313Y1399082D01*
X7942706Y1399082D01*
X7928990Y1394510D01*
X7919847Y1389938D01*
X7910702Y1380794D01*
X7906131Y1371650D01*
X7906131Y1353616D01*
X7910702Y1344472D01*
X7919847Y1335328D01*
X7928990Y1330756D01*
X7979029Y1232712D02*
G01*
X7988172Y1237030D01*
X7997063Y1246174D01*
X8001634Y1255318D01*
X8001634Y1273606D01*
X7997063Y1282496D01*
X7988172Y1291640D01*
X7979029Y1296212D01*
X7965313Y1300784D01*
X7942706Y1300784D01*
X7928990Y1296212D01*
X7919847Y1291640D01*
X7910702Y1282496D01*
X7906131Y1273606D01*
X7906131Y1255318D01*
X7910702Y1246174D01*
X7919847Y1237030D01*
X7928990Y1232712D01*
X8017129Y1700326D02*
G01*
X8026272Y1704644D01*
X8035163Y1713788D01*
X8039734Y1722932D01*
X8039734Y1741220D01*
X8035163Y1750110D01*
X8026272Y1759254D01*
X8017129Y1763826D01*
X8003413Y1768398D01*
X7980806Y1768398D01*
X7967090Y1763826D01*
X7957947Y1759254D01*
X7948802Y1750110D01*
X7944231Y1741220D01*
X7944231Y1722932D01*
X7948802Y1713788D01*
X7957947Y1704644D01*
X7967090Y1700326D01*
X7980806Y1700326D01*
X7980806Y1722932D02*
G01*
X7980806Y1700326D01*
X8039734Y1670100D02*
G01*
X7944231Y1670100D01*
X8039734Y1670100D02*
G01*
X7944231Y1606600D01*
X8039734Y1606600D02*
G01*
X7944231Y1606600D01*
X8039734Y1576628D02*
G01*
X7944231Y1576628D01*
X8039734Y1576628D02*
G01*
X8039734Y1544878D01*
X8035163Y1531162D01*
X8026272Y1522018D01*
X8017129Y1517446D01*
X8003413Y1512874D01*
X7980806Y1512874D01*
X7967090Y1517446D01*
X7957947Y1522018D01*
X7948802Y1531162D01*
X7944231Y1544878D01*
X7944231Y1576628D01*
X7988172Y879144D02*
G01*
X7997063Y888288D01*
X8001634Y902004D01*
X8001634Y920292D01*
X7997063Y933754D01*
X7988172Y942898D01*
X7979029Y942898D01*
X7969884Y938326D01*
X7965313Y933754D01*
X7960740Y924610D01*
X7951597Y897432D01*
X7947279Y888288D01*
X7942706Y883716D01*
X7933563Y879144D01*
X7919847Y879144D01*
X7910702Y888288D01*
X7906131Y902004D01*
X7906131Y920292D01*
X7910702Y933754D01*
X7919847Y942898D01*
X8001634Y849172D02*
G01*
X7906131Y849172D01*
X8001634Y849172D02*
G01*
X8001634Y817422D01*
X7997063Y803706D01*
X7988172Y794816D01*
X7979029Y790244D01*
X7965313Y785672D01*
X7942706Y785672D01*
X7928990Y790244D01*
X7919847Y794816D01*
X7910702Y803706D01*
X7906131Y817422D01*
X7906131Y849172D01*
X8001634Y719378D02*
G01*
X7906131Y755700D01*
X8001634Y719378D02*
G01*
X7906131Y682802D01*
X7938134Y741984D02*
G01*
X7938134Y696518D01*
X8026272Y1145844D02*
G01*
X8035163Y1154988D01*
X8039734Y1168704D01*
X8039734Y1186992D01*
X8035163Y1200454D01*
X8026272Y1209598D01*
X8017129Y1209598D01*
X8007984Y1205026D01*
X8003413Y1200454D01*
X7998840Y1191310D01*
X7989697Y1164132D01*
X7985379Y1154988D01*
X7980806Y1150416D01*
X7971663Y1145844D01*
X7957947Y1145844D01*
X7948802Y1154988D01*
X7944231Y1168704D01*
X7944231Y1186992D01*
X7948802Y1200454D01*
X7957947Y1209598D01*
X8017129Y1047800D02*
G01*
X8026272Y1052372D01*
X8035163Y1061516D01*
X8039734Y1070406D01*
X8039734Y1088694D01*
X8035163Y1097838D01*
X8026272Y1106982D01*
X8017129Y1111300D01*
X8003413Y1115872D01*
X7980806Y1115872D01*
X7967090Y1111300D01*
X7957947Y1106982D01*
X7948802Y1097838D01*
X7944231Y1088694D01*
X7944231Y1070406D01*
X7948802Y1061516D01*
X7957947Y1052372D01*
X7967090Y1047800D01*
X8039734Y1017828D02*
G01*
X7944231Y1017828D01*
X7944231Y1017828D02*
G01*
X7944231Y963218D01*
D10*
X7950200Y4050284D02*
G01*
X7950200Y4128262D01*
X7945120Y4143755D01*
X7934706Y4154170D01*
X7918958Y4159250D01*
X7908543Y4159250D01*
X7893050Y4154170D01*
X7882636Y4143755D01*
X7877556Y4128262D01*
X7877556Y4050284D01*
X7780781Y4050284D02*
G01*
X7832852Y4050284D01*
X7837931Y4097020D01*
X7832852Y4091939D01*
X7817104Y4086605D01*
X7801609Y4086605D01*
X7786115Y4091939D01*
X7775702Y4102100D01*
X7770368Y4117847D01*
X7770368Y4128262D01*
X7775702Y4143755D01*
X7786115Y4154170D01*
X7801609Y4159250D01*
X7817104Y4159250D01*
X7832852Y4154170D01*
X7837931Y4149089D01*
X7843265Y4138676D01*
D11*
X7859522Y4979670D02*
G01*
X8053324Y4979670D01*
X7859522Y4914900D02*
G01*
X7859522Y5044186D01*
X7905750Y5243829D02*
G01*
X7887208Y5234431D01*
X7868665Y5215889D01*
X7859522Y5197602D01*
X7859522Y5160518D01*
X7868665Y5142229D01*
X7887208Y5123687D01*
X7905750Y5114289D01*
X7933436Y5105145D01*
X7979409Y5105145D01*
X8007350Y5114289D01*
X8025638Y5123687D01*
X8044179Y5142229D01*
X8053324Y5160518D01*
X8053324Y5197602D01*
X8044179Y5215889D01*
X8025638Y5234431D01*
X8007350Y5243829D01*
X7859522Y5378450D02*
G01*
X8053324Y5304789D01*
X7859522Y5378450D02*
G01*
X8053324Y5452363D01*
X7988808Y5332476D02*
G01*
X7988808Y5424678D01*
X7924038Y5633465D02*
G01*
X7951724Y5624321D01*
X7970265Y5605779D01*
X7979409Y5578094D01*
X7979409Y5568950D01*
X7970265Y5541010D01*
X7951724Y5522721D01*
X7924038Y5513323D01*
X7914893Y5513323D01*
X7887208Y5522721D01*
X7868665Y5541010D01*
X7859522Y5568950D01*
X7859522Y5578094D01*
X7868665Y5605779D01*
X7887208Y5624321D01*
X7924038Y5633465D01*
X7970265Y5633465D01*
X8016493Y5624321D01*
X8044179Y5605779D01*
X8053324Y5578094D01*
X8053324Y5559552D01*
X8044179Y5531865D01*
X8025638Y5522721D01*
X7859522Y5805170D02*
G01*
X7859522Y5712968D01*
X7942579Y5703570D01*
X7933436Y5712968D01*
X7924038Y5740654D01*
X7924038Y5768339D01*
X7933436Y5796026D01*
X7951724Y5814568D01*
X7979409Y5823712D01*
X7997952Y5823712D01*
X8025638Y5814568D01*
X8044179Y5796026D01*
X8053324Y5768339D01*
X8053324Y5740654D01*
X8044179Y5712968D01*
X8035036Y5703570D01*
X8016493Y5694426D01*
X7859522Y5977128D02*
G01*
X7988808Y5884671D01*
X7988808Y6023355D01*
X7859522Y5977128D02*
G01*
X8053324Y5977128D01*
X7859522Y6130289D02*
G01*
X7868665Y6102604D01*
X7887208Y6093460D01*
X7905750Y6093460D01*
X7924038Y6102604D01*
X7933436Y6121145D01*
X7942579Y6158229D01*
X7951724Y6185915D01*
X7970265Y6204204D01*
X7988808Y6213602D01*
X8016493Y6213602D01*
X8035036Y6204204D01*
X8044179Y6195060D01*
X8053324Y6167373D01*
X8053324Y6130289D01*
X8044179Y6102604D01*
X8035036Y6093460D01*
X8016493Y6084315D01*
X7988808Y6084315D01*
X7970265Y6093460D01*
X7951724Y6112002D01*
X7942579Y6139687D01*
X7933436Y6176518D01*
X7924038Y6195060D01*
X7905750Y6204204D01*
X7887208Y6204204D01*
X7868665Y6195060D01*
X7859522Y6167373D01*
X7859522Y6130289D01*
X7859522Y6348476D02*
G01*
X8053324Y6274562D01*
X7859522Y6348476D02*
G01*
X8053324Y6422389D01*
X7988808Y6302247D02*
G01*
X7988808Y6394450D01*
D10*
X7543800Y9983215D02*
G01*
X7543800Y9905237D01*
X7548879Y9889744D01*
X7559293Y9879329D01*
X7575041Y9874250D01*
X7585456Y9874250D01*
X7600950Y9879329D01*
X7611363Y9889744D01*
X7616443Y9905237D01*
X7616443Y9983215D01*
X7713218Y9967721D02*
G01*
X7707884Y9978136D01*
X7692390Y9983215D01*
X7681975Y9983215D01*
X7666481Y9978136D01*
X7656068Y9962387D01*
X7650734Y9936479D01*
X7650734Y9910571D01*
X7656068Y9889744D01*
X7666481Y9879329D01*
X7681975Y9874250D01*
X7687309Y9874250D01*
X7702804Y9879329D01*
X7713218Y9889744D01*
X7718297Y9905237D01*
X7718297Y9910571D01*
X7713218Y9926065D01*
X7702804Y9936479D01*
X7687309Y9941560D01*
X7681975Y9941560D01*
X7666481Y9936479D01*
X7656068Y9926065D01*
X7650734Y9910571D01*
X3060700Y633984D02*
G01*
X3060700Y711962D01*
X3055620Y727455D01*
X3045206Y737870D01*
X3029458Y742950D01*
X3019043Y742950D01*
X3003550Y737870D01*
X2993136Y727455D01*
X2988056Y711962D01*
X2988056Y633984D01*
X2927604Y633984D02*
G01*
X2943352Y639063D01*
X2948431Y649478D01*
X2948431Y659892D01*
X2943352Y670305D01*
X2932938Y675639D01*
X2912109Y680720D01*
X2896615Y685800D01*
X2886202Y696213D01*
X2880868Y706628D01*
X2880868Y722376D01*
X2886202Y732789D01*
X2891281Y737870D01*
X2907029Y742950D01*
X2927604Y742950D01*
X2943352Y737870D01*
X2948431Y732789D01*
X2953765Y722376D01*
X2953765Y706628D01*
X2948431Y696213D01*
X2938018Y685800D01*
X2922524Y680720D01*
X2901695Y675639D01*
X2891281Y670305D01*
X2886202Y659892D01*
X2886202Y649478D01*
X2891281Y639063D01*
X2907029Y633984D01*
X2927604Y633984D01*
X10313415Y2705100D02*
G01*
X10235438Y2705100D01*
X10219943Y2700020D01*
X10209529Y2689605D01*
X10204450Y2673857D01*
X10204450Y2663444D01*
X10209529Y2647950D01*
X10219943Y2637536D01*
X10235438Y2632455D01*
X10313415Y2632455D01*
X10277093Y2530602D02*
G01*
X10261600Y2535681D01*
X10251186Y2546095D01*
X10245852Y2561589D01*
X10245852Y2566923D01*
X10251186Y2582418D01*
X10261600Y2592831D01*
X10277093Y2598165D01*
X10282174Y2598165D01*
X10297922Y2592831D01*
X10308336Y2582418D01*
X10313415Y2566923D01*
X10313415Y2561589D01*
X10308336Y2546095D01*
X10297922Y2535681D01*
X10277093Y2530602D01*
X10251186Y2530602D01*
X10225024Y2535681D01*
X10209529Y2546095D01*
X10204450Y2561589D01*
X10204450Y2572004D01*
X10209529Y2587752D01*
X10219943Y2592831D01*
X1014984Y7658100D02*
G01*
X1092962Y7658100D01*
X1108455Y7663179D01*
X1118870Y7673594D01*
X1123950Y7689342D01*
X1123950Y7699755D01*
X1118870Y7715250D01*
X1108455Y7725663D01*
X1092962Y7730744D01*
X1014984Y7730744D01*
X1035812Y7765034D02*
G01*
X1030478Y7775447D01*
X1014984Y7791195D01*
X1123950Y7791195D01*
X1014984Y7856473D02*
G01*
X1020063Y7840979D01*
X1035812Y7830565D01*
X1061720Y7825486D01*
X1077213Y7825486D01*
X1103376Y7830565D01*
X1118870Y7840979D01*
X1123950Y7856473D01*
X1123950Y7866887D01*
X1118870Y7882636D01*
X1103376Y7893050D01*
X1077213Y7898129D01*
X1061720Y7898129D01*
X1035812Y7893050D01*
X1020063Y7882636D01*
X1014984Y7866887D01*
X1014984Y7856473D01*
X5029200Y8306815D02*
G01*
X5029200Y8228837D01*
X5034279Y8213344D01*
X5044693Y8202929D01*
X5060441Y8197850D01*
X5070856Y8197850D01*
X5086350Y8202929D01*
X5096763Y8213344D01*
X5101843Y8228837D01*
X5101843Y8306815D01*
X5209031Y8306815D02*
G01*
X5156961Y8197850D01*
X5136134Y8306815D02*
G01*
X5209031Y8306815D01*
D11*
X4976627Y3937002D02*
G01*
X5170429Y3937002D01*
X4976627Y3937002D02*
G01*
X4976627Y4057144D01*
X5068829Y3937002D02*
G01*
X5068829Y4010916D01*
X5170429Y3937002D02*
G01*
X5170429Y4057144D01*
X5004313Y4247390D02*
G01*
X4985771Y4228848D01*
X4976627Y4201162D01*
X4976627Y4164332D01*
X4985771Y4136392D01*
X5004313Y4118104D01*
X5022855Y4118104D01*
X5041143Y4127248D01*
X5050541Y4136392D01*
X5059685Y4154934D01*
X5078227Y4210306D01*
X5087371Y4228848D01*
X5096515Y4237992D01*
X5115057Y4247390D01*
X5142743Y4247390D01*
X5161285Y4228848D01*
X5170429Y4201162D01*
X5170429Y4164332D01*
X5161285Y4136392D01*
X5142743Y4118104D01*
X4976627Y4308350D02*
G01*
X5170429Y4308350D01*
X4976627Y4308350D02*
G01*
X4976627Y4391408D01*
X4985771Y4419094D01*
X4994915Y4428492D01*
X5013457Y4437636D01*
X5041143Y4437636D01*
X5059685Y4428492D01*
X5068829Y4419094D01*
X5078227Y4391408D01*
X5078227Y4308350D01*
X4976627Y4517138D02*
G01*
X4976627Y4618738D01*
X5050541Y4563112D01*
X5050541Y4591052D01*
X5059685Y4609340D01*
X5068829Y4618738D01*
X5096515Y4627882D01*
X5115057Y4627882D01*
X5142743Y4618738D01*
X5161285Y4600196D01*
X5170429Y4572510D01*
X5170429Y4544824D01*
X5161285Y4517138D01*
X5152141Y4507740D01*
X5133599Y4498596D01*
X5022855Y4697986D02*
G01*
X5013457Y4697986D01*
X4994915Y4707384D01*
X4985771Y4716528D01*
X4976627Y4735070D01*
X4976627Y4771900D01*
X4985771Y4790442D01*
X4994915Y4799586D01*
X5013457Y4808984D01*
X5031999Y4808984D01*
X5050541Y4799586D01*
X5078227Y4781298D01*
X5170429Y4688842D01*
X5170429Y4818128D01*
X5087371Y4879088D02*
G01*
X5087371Y5045458D01*
X4976627Y5106418D02*
G01*
X5170429Y5106418D01*
X4976627Y5106418D02*
G01*
X4976627Y5170934D01*
X4985771Y5198620D01*
X5004313Y5217162D01*
X5022855Y5226306D01*
X5050541Y5235704D01*
X5096515Y5235704D01*
X5124455Y5226306D01*
X5142743Y5217162D01*
X5161285Y5198620D01*
X5170429Y5170934D01*
X5170429Y5106418D01*
X5096515Y5296664D02*
G01*
X5096515Y5407408D01*
X5078227Y5407408D01*
X5059685Y5398264D01*
X5050541Y5388866D01*
X5041143Y5370578D01*
X5041143Y5342892D01*
X5050541Y5324350D01*
X5068829Y5305808D01*
X5096515Y5296664D01*
X5115057Y5296664D01*
X5142743Y5305808D01*
X5161285Y5324350D01*
X5170429Y5342892D01*
X5170429Y5370578D01*
X5161285Y5388866D01*
X5142743Y5407408D01*
X5041143Y5468368D02*
G01*
X5170429Y5523740D01*
X5041143Y5579112D02*
G01*
X5170429Y5523740D01*
X4976627Y5640072D02*
G01*
X5170429Y5640072D01*
X4976627Y5769612D02*
G01*
X5105913Y5640072D01*
X5059685Y5686300D02*
G01*
X5170429Y5769612D01*
X4976627Y5830572D02*
G01*
X4985771Y5839716D01*
X4976627Y5848860D01*
X4967229Y5839716D01*
X4976627Y5830572D01*
X5041143Y5839716D02*
G01*
X5170429Y5839716D01*
X4976627Y5937506D02*
G01*
X5133599Y5937506D01*
X5161285Y5946904D01*
X5170429Y5965192D01*
X5170429Y5983734D01*
X5041143Y5909820D02*
G01*
X5041143Y5974590D01*
X5022855Y6183378D02*
G01*
X5004313Y6173980D01*
X4985771Y6155692D01*
X4976627Y6137150D01*
X4976627Y6100066D01*
X4985771Y6081778D01*
X5004313Y6063236D01*
X5022855Y6054092D01*
X5050541Y6044694D01*
X5096515Y6044694D01*
X5124455Y6054092D01*
X5142743Y6063236D01*
X5161285Y6081778D01*
X5170429Y6100066D01*
X5170429Y6137150D01*
X5161285Y6155692D01*
X5142743Y6173980D01*
X5124455Y6183378D01*
X4976627Y6386578D02*
G01*
X5170429Y6386578D01*
X4976627Y6386578D02*
G01*
X5170429Y6460492D01*
X4976627Y6534152D02*
G01*
X5170429Y6460492D01*
X4976627Y6534152D02*
G01*
X5170429Y6534152D01*
X5041143Y6641340D02*
G01*
X5050541Y6623052D01*
X5068829Y6604510D01*
X5096515Y6595112D01*
X5115057Y6595112D01*
X5142743Y6604510D01*
X5161285Y6623052D01*
X5170429Y6641340D01*
X5170429Y6669026D01*
X5161285Y6687568D01*
X5142743Y6706110D01*
X5115057Y6715254D01*
X5096515Y6715254D01*
X5068829Y6706110D01*
X5050541Y6687568D01*
X5041143Y6669026D01*
X5041143Y6641340D01*
X4976627Y6887212D02*
G01*
X5170429Y6887212D01*
X5068829Y6887212D02*
G01*
X5050541Y6868670D01*
X5041143Y6850128D01*
X5041143Y6822442D01*
X5050541Y6803900D01*
X5068829Y6785612D01*
X5096515Y6776214D01*
X5115057Y6776214D01*
X5142743Y6785612D01*
X5161285Y6803900D01*
X5170429Y6822442D01*
X5170429Y6850128D01*
X5161285Y6868670D01*
X5142743Y6887212D01*
X5096515Y6948172D02*
G01*
X5096515Y7058916D01*
X5078227Y7058916D01*
X5059685Y7049772D01*
X5050541Y7040374D01*
X5041143Y7021832D01*
X5041143Y6994146D01*
X5050541Y6975858D01*
X5068829Y6957316D01*
X5096515Y6948172D01*
X5115057Y6948172D01*
X5142743Y6957316D01*
X5161285Y6975858D01*
X5170429Y6994146D01*
X5170429Y7021832D01*
X5161285Y7040374D01*
X5142743Y7058916D01*
G36*
X2830677Y10182301D02*
G01*
X2830677Y8982303D01*
X5830722Y8982303D01*
X5830722Y10182301D01*
G37*
G36*
X980998Y5957671D02*
G01*
X980998Y2957728D01*
X2180996Y2957728D01*
X2180996Y5957671D01*
G37*
G36*
X9363303Y7507071D02*
G01*
X9363303Y4507128D01*
X10563301Y4507128D01*
X10563301Y7507071D01*
G37*
G36*
X4849977Y1850796D02*
G01*
X4849977Y650798D01*
X7850022Y650798D01*
X7850022Y1850796D01*
G37*
D12*
X9434550Y10409859D02*
G01*
X10334548Y10409859D01*
X10334548Y10409859D02*
G01*
X10334548Y9009862D01*
X10334548Y9009862D02*
G01*
X9434550Y9009862D01*
X9434550Y9009862D02*
G01*
X9434550Y10409859D01*
X9434550Y10079862D02*
G01*
X10334548Y10079862D01*
X9564547Y10071862D02*
G01*
X9564547Y9009862D01*
X10204526Y10071862D02*
G01*
X10204526Y9009862D01*
D11*
X1905000Y1930400D02*
G01*
X2095500Y1930400D01*
X2095500Y2184400D01*
D12*
X2095500Y1930400D02*
G01*
X1562100Y1930400D01*
X1562100Y2184400D01*
X2095500Y2184400D01*
X2095500Y1930400D01*
D11*
X1638300Y9220200D02*
G01*
X1638300Y9029700D01*
X1892300Y9029700D01*
D12*
X1638300Y9029700D02*
G01*
X1638300Y9563100D01*
X1892300Y9563100D01*
X1892300Y9029700D01*
X1638300Y9029700D01*
D11*
X9626600Y8572500D02*
G01*
X9436100Y8572500D01*
X9436100Y8318500D01*
D12*
X9436100Y8572500D02*
G01*
X9969500Y8572500D01*
X9969500Y8318500D01*
X9436100Y8318500D01*
X9436100Y8572500D01*
D11*
X8991600Y1549400D02*
G01*
X8991600Y1739900D01*
X8737600Y1739900D01*
D12*
X8991600Y1739900D02*
G01*
X8991600Y1206500D01*
X8737600Y1206500D01*
X8737600Y1739900D01*
X8991600Y1739900D01*
X2360800Y9069113D02*
G01*
X2360800Y10127112D01*
X2614800Y9069100D02*
G01*
X2614800Y10127099D01*
X2360800Y9346453D02*
G01*
X2614800Y9346453D01*
X2360800Y10127099D02*
G01*
X2614800Y10127099D01*
X2360800Y9069113D02*
G01*
X2614800Y9069113D01*
X2335402Y10195001D02*
G01*
X6135395Y10195001D01*
X6135395Y8995003D01*
X2335402Y8995003D01*
X2335402Y10195001D01*
X2094186Y2487800D02*
G01*
X1036187Y2487800D01*
X2094199Y2741800D02*
G01*
X1036200Y2741800D01*
X1816846Y2487800D02*
G01*
X1816846Y2741800D01*
X1036200Y2487800D02*
G01*
X1036200Y2741800D01*
X2094186Y2487800D02*
G01*
X2094186Y2741800D01*
X968298Y2462403D02*
G01*
X968298Y6262395D01*
X2168296Y6262395D01*
X2168296Y2462403D01*
X968298Y2462403D01*
X9450113Y7976999D02*
G01*
X10508112Y7976999D01*
X9450100Y7722999D02*
G01*
X10508099Y7722999D01*
X9727453Y7976999D02*
G01*
X9727453Y7722999D01*
X10508099Y7976999D02*
G01*
X10508099Y7722999D01*
X9450113Y7976999D02*
G01*
X9450113Y7722999D01*
X10576001Y8002396D02*
G01*
X10576001Y4202404D01*
X9376003Y4202404D01*
X9376003Y8002396D01*
X10576001Y8002396D01*
X8319899Y1763986D02*
G01*
X8319899Y705987D01*
X8065899Y1763999D02*
G01*
X8065899Y706000D01*
X8319899Y1486646D02*
G01*
X8065899Y1486646D01*
X8319899Y706000D02*
G01*
X8065899Y706000D01*
X8319899Y1763986D02*
G01*
X8065899Y1763986D01*
X8345297Y638098D02*
G01*
X4545304Y638098D01*
X4545304Y1838096D01*
X8345297Y1838096D01*
X8345297Y638098D01*
X8839200Y4191000D02*
G01*
X7061200Y4191000D01*
X7061200Y7239000D01*
X8839200Y7239000D01*
X8839200Y4191000D01*
X6493799Y9334500D02*
G01*
X8597900Y9334500D01*
X8597900Y9842500D01*
X6493799Y9842500D02*
G01*
X8593800Y9842500D01*
X6493799Y9842500D02*
G01*
X6493799Y9334500D01*
X4110700Y1282700D02*
G01*
X2006600Y1282700D01*
X2006600Y774700D01*
X4110700Y774700D02*
G01*
X2010699Y774700D01*
X4110700Y774700D02*
G01*
X4110700Y1282700D01*
X9664700Y3755100D02*
G01*
X9664700Y1651000D01*
X10172700Y1651000D01*
X10172700Y3755100D02*
G01*
X10172700Y1655099D01*
X10172700Y3755100D02*
G01*
X9664700Y3755100D01*
X1663700Y6608099D02*
G01*
X1663700Y8712200D01*
X1155700Y8712200D01*
X1155700Y6608099D02*
G01*
X1155700Y8708100D01*
X1155700Y6608099D02*
G01*
X1663700Y6608099D01*
X5435602Y7747000D02*
G01*
X5181602Y7747000D01*
X5181602Y7620000D01*
X5054602Y7620000D01*
X5054602Y7747000D01*
X4927602Y7747000D01*
X4927602Y7620000D01*
X4800602Y7620000D01*
X4800602Y7747000D01*
X4673602Y7747000D01*
X4673602Y7429500D01*
X5308602Y7429500D02*
G01*
X5308602Y7747000D01*
X5435602Y7429500D02*
G01*
X5435602Y7747000D01*
X6384091Y6286502D02*
G01*
X6447591Y6350002D01*
X6447591Y6477002D01*
X6384091Y6540502D01*
X6257094Y4762507D02*
G01*
X6193591Y4826007D01*
X6193591Y4953007D01*
X6257091Y5016507D01*
X6257091Y4508510D02*
G01*
X6193591Y4572007D01*
X6193591Y4699007D01*
X6257091Y4762507D01*
X6384089Y7556502D02*
G01*
X6447589Y7620002D01*
X6447589Y7747002D01*
X6384089Y7810502D01*
X6384089Y7302502D02*
G01*
X6447589Y7366002D01*
X6447589Y7493002D01*
X6384089Y7556502D01*
X6384091Y7048502D02*
G01*
X6447591Y7112002D01*
X6447591Y7239002D01*
X6384091Y7302502D01*
X6384089Y6794502D02*
G01*
X6447589Y6858002D01*
X6447589Y6985002D01*
X6384089Y7048502D01*
X6257091Y7556500D02*
G01*
X6193591Y7620000D01*
X6193591Y7747000D01*
X6257091Y7810500D01*
X6257091Y7302502D02*
G01*
X6193591Y7366002D01*
X6193591Y7493002D01*
X6257091Y7556502D01*
X6257091Y7048502D02*
G01*
X6193591Y7112002D01*
X6193591Y7239002D01*
X6257091Y7302502D01*
X6257091Y6794502D02*
G01*
X6193591Y6858002D01*
X6193591Y6985002D01*
X6257091Y7048502D01*
X6257091Y6540502D02*
G01*
X6193591Y6604002D01*
X6193591Y6731002D01*
X6257091Y6794502D01*
X6257091Y3746510D02*
G01*
X6193591Y3810010D01*
X6193591Y3937010D01*
X6257091Y4000510D01*
X6257091Y4000507D02*
G01*
X6193591Y4064007D01*
X6193591Y4191007D01*
X6257091Y4254507D01*
X6257091Y4254507D02*
G01*
X6193591Y4318007D01*
X6193591Y4445007D01*
X6257091Y4508507D01*
X6384089Y3746507D02*
G01*
X6447589Y3810007D01*
X6447589Y3937007D01*
X6384089Y4000507D01*
X6384089Y6540502D02*
G01*
X6447589Y6604002D01*
X6447589Y6731002D01*
X6384089Y6794502D01*
X6384089Y4000505D02*
G01*
X6447589Y4064005D01*
X6447589Y4191005D01*
X6384089Y4254505D01*
X6384089Y4254505D02*
G01*
X6447589Y4318005D01*
X6447589Y4445005D01*
X6384089Y4508505D01*
X6384091Y4508507D02*
G01*
X6447591Y4572007D01*
X6447591Y4699007D01*
X6384091Y4762507D01*
X6384091Y4762507D02*
G01*
X6447591Y4826007D01*
X6447591Y4953007D01*
X6384091Y5016507D01*
X6384091Y6032502D02*
G01*
X6447591Y6096002D01*
X6447591Y6223002D01*
X6384091Y6286502D01*
X6257091Y5778502D02*
G01*
X6193591Y5842002D01*
X6193591Y5969002D01*
X6257091Y6032502D01*
X6384091Y5778502D02*
G01*
X6447591Y5842002D01*
X6447591Y5969002D01*
X6384091Y6032502D01*
X6257091Y5524502D02*
G01*
X6193591Y5588002D01*
X6193591Y5715002D01*
X6257091Y5778502D01*
X6384091Y5524502D02*
G01*
X6447591Y5588002D01*
X6447591Y5715002D01*
X6384091Y5778502D01*
X6257091Y5270502D02*
G01*
X6193591Y5334002D01*
X6193591Y5461002D01*
X6257091Y5524502D01*
X6384091Y5270502D02*
G01*
X6447591Y5334002D01*
X6447591Y5461002D01*
X6384091Y5524502D01*
X6257091Y5016502D02*
G01*
X6193591Y5080002D01*
X6193591Y5207002D01*
X6257091Y5270502D01*
X6384091Y5016502D02*
G01*
X6447591Y5080002D01*
X6447591Y5207002D01*
X6384091Y5270502D01*
X6384091Y7810500D02*
G01*
X6257091Y7810500D01*
X6257091Y6286502D02*
G01*
X6193591Y6350002D01*
X6193591Y6477002D01*
X6257091Y6540502D01*
X6257091Y6032502D02*
G01*
X6193591Y6096002D01*
X6193591Y6223002D01*
X6257091Y6286502D01*
X6257091Y2984515D02*
G01*
X6193591Y3048015D01*
X6193591Y3175015D01*
X6257091Y3238515D01*
X6257091Y3238512D02*
G01*
X6193591Y3302012D01*
X6193591Y3429012D01*
X6257091Y3492512D01*
X6257091Y3492512D02*
G01*
X6193591Y3556012D01*
X6193591Y3683012D01*
X6257091Y3746512D01*
X6384089Y2984512D02*
G01*
X6447589Y3048012D01*
X6447589Y3175012D01*
X6384089Y3238512D01*
X6384089Y3238510D02*
G01*
X6447589Y3302010D01*
X6447589Y3429010D01*
X6384089Y3492510D01*
X6384089Y3492510D02*
G01*
X6447589Y3556010D01*
X6447589Y3683010D01*
X6384089Y3746510D01*
X6384091Y2984510D02*
G01*
X6257091Y2984510D01*
X3721105Y4762502D02*
G01*
X3657602Y4826002D01*
X3657602Y4953002D01*
X3721102Y5016502D01*
X3721102Y4508505D02*
G01*
X3657602Y4572002D01*
X3657602Y4699002D01*
X3721102Y4762502D01*
X3848100Y7556497D02*
G01*
X3911600Y7619997D01*
X3911600Y7746997D01*
X3848100Y7810497D01*
X3848100Y7302497D02*
G01*
X3911600Y7365997D01*
X3911600Y7492997D01*
X3848100Y7556497D01*
X3848102Y7048497D02*
G01*
X3911602Y7111997D01*
X3911602Y7238997D01*
X3848102Y7302497D01*
X3848100Y6794497D02*
G01*
X3911600Y6857997D01*
X3911600Y6984997D01*
X3848100Y7048497D01*
X3721102Y7556494D02*
G01*
X3657602Y7619994D01*
X3657602Y7746994D01*
X3721102Y7810494D01*
X3721102Y7302497D02*
G01*
X3657602Y7365997D01*
X3657602Y7492997D01*
X3721102Y7556497D01*
X3721102Y7048497D02*
G01*
X3657602Y7111997D01*
X3657602Y7238997D01*
X3721102Y7302497D01*
X3721102Y6794497D02*
G01*
X3657602Y6857997D01*
X3657602Y6984997D01*
X3721102Y7048497D01*
X3721102Y6540497D02*
G01*
X3657602Y6603997D01*
X3657602Y6730997D01*
X3721102Y6794497D01*
X3721102Y3746505D02*
G01*
X3657602Y3810005D01*
X3657602Y3937005D01*
X3721102Y4000505D01*
X3721102Y4000502D02*
G01*
X3657602Y4064002D01*
X3657602Y4191002D01*
X3721102Y4254502D01*
X3721102Y4254502D02*
G01*
X3657602Y4318002D01*
X3657602Y4445002D01*
X3721102Y4508502D01*
X3848100Y3746502D02*
G01*
X3911600Y3810002D01*
X3911600Y3937002D01*
X3848100Y4000502D01*
X3848100Y6540497D02*
G01*
X3911600Y6603997D01*
X3911600Y6730997D01*
X3848100Y6794497D01*
X3848100Y4000500D02*
G01*
X3911600Y4064000D01*
X3911600Y4191000D01*
X3848100Y4254500D01*
X3848100Y4254500D02*
G01*
X3911600Y4318000D01*
X3911600Y4445000D01*
X3848100Y4508500D01*
X3848102Y4508502D02*
G01*
X3911602Y4572002D01*
X3911602Y4699002D01*
X3848102Y4762502D01*
X3848102Y4762502D02*
G01*
X3911602Y4826002D01*
X3911602Y4953002D01*
X3848102Y5016502D01*
X3848102Y6032497D02*
G01*
X3911602Y6095997D01*
X3911602Y6222997D01*
X3848102Y6286497D01*
X3721102Y5778497D02*
G01*
X3657602Y5841997D01*
X3657602Y5968997D01*
X3721102Y6032497D01*
X3848102Y5778497D02*
G01*
X3911602Y5841997D01*
X3911602Y5968997D01*
X3848102Y6032497D01*
X3721102Y5524497D02*
G01*
X3657602Y5587997D01*
X3657602Y5714997D01*
X3721102Y5778497D01*
X3848102Y5524497D02*
G01*
X3911602Y5587997D01*
X3911602Y5714997D01*
X3848102Y5778497D01*
X3721102Y5270497D02*
G01*
X3657602Y5333997D01*
X3657602Y5460997D01*
X3721102Y5524497D01*
X3848102Y5270497D02*
G01*
X3911602Y5333997D01*
X3911602Y5460997D01*
X3848102Y5524497D01*
X3721102Y5016497D02*
G01*
X3657602Y5079997D01*
X3657602Y5206997D01*
X3721102Y5270497D01*
X3848102Y5016497D02*
G01*
X3911602Y5079997D01*
X3911602Y5206997D01*
X3848102Y5270497D01*
X3848102Y7810494D02*
G01*
X3721102Y7810494D01*
X3721102Y6286497D02*
G01*
X3657602Y6349997D01*
X3657602Y6476997D01*
X3721102Y6540497D01*
X3848102Y6286497D02*
G01*
X3911602Y6349997D01*
X3911602Y6476997D01*
X3848102Y6540497D01*
X3721102Y6032497D02*
G01*
X3657602Y6095997D01*
X3657602Y6222997D01*
X3721102Y6286497D01*
X3721102Y2984510D02*
G01*
X3657602Y3048010D01*
X3657602Y3175010D01*
X3721102Y3238510D01*
X3721102Y3238507D02*
G01*
X3657602Y3302007D01*
X3657602Y3429007D01*
X3721102Y3492507D01*
X3721102Y3492507D02*
G01*
X3657602Y3556007D01*
X3657602Y3683007D01*
X3721102Y3746507D01*
X3848100Y2984507D02*
G01*
X3911600Y3048007D01*
X3911600Y3175007D01*
X3848100Y3238507D01*
X3848100Y3238505D02*
G01*
X3911600Y3302005D01*
X3911600Y3429005D01*
X3848100Y3492505D01*
X3848100Y3492505D02*
G01*
X3911600Y3556005D01*
X3911600Y3683005D01*
X3848100Y3746505D01*
X3848102Y2984505D02*
G01*
X3721102Y2984505D01*
X3657600Y8142503D02*
G01*
X6447612Y8142503D01*
X6447612Y2652496D01*
X3657600Y2652496D01*
X3657600Y8142503D01*
X4677613Y3111500D02*
G01*
X5427624Y3111500D01*
X5427624Y2667000D01*
X4677613Y2667000D01*
X4677613Y3111500D01*
X4552594Y7874000D02*
G01*
X5552592Y7874000D01*
X5552592Y6286500D01*
X4552594Y6286500D01*
X4552594Y7874000D01*
M02*
