G04 Layer: BottomLayer*
G04 EasyEDA v6.5.57, 2026-07-18 21:38:12*
G04 9634977947e14e55a421a7bb4936169c,e348c271af94452cba638ad1145e7fe5,10*
G04 Gerber Generator version 0.2*
G04 Scale: 100 percent, Rotated: No, Reflected: No *
G04 Dimensions in millimeters *
G04 leading zeros omitted , absolute positions ,4 integer and 5 decimal *
%FSLAX45Y45*%
%MOMM*%

%ADD10C,0.2540*%
%ADD11O,3.799992X1.499997*%
%ADD12O,1.499997X3.399993*%
%ADD13R,1.5748X1.5748*%
%ADD14C,1.5748*%
%ADD15C,0.0141*%
%ADD16R,1.7000X1.7000*%
%ADD17C,1.7000*%
%ADD18C,1.5240*%
%ADD19R,1.5240X1.5240*%
%ADD20C,0.6096*%

%LPD*%
D10*
X9918702Y2578100D02*
G01*
X9918702Y2602864D01*
X7314567Y5207000D01*
X7047588Y5207000D01*
X6349088Y5905500D01*
X6320589Y5905500D01*
X9918702Y2832100D02*
G01*
X7289802Y5461000D01*
X7152236Y5461000D01*
X6470296Y6142939D01*
X6470296Y6263792D01*
X6320589Y6413500D01*
X6320589Y4889500D02*
G01*
X5137228Y3706139D01*
X5137228Y2517597D01*
X3487092Y867460D01*
X3094941Y867460D01*
X2933702Y1028700D01*
X6320589Y5143500D02*
G01*
X4950564Y3773474D01*
X4950564Y2388615D01*
X3485212Y923264D01*
X3293137Y923264D01*
X3187702Y1028700D01*
X6320589Y5651500D02*
G01*
X4772713Y4103623D01*
X4772713Y2359710D01*
X3441702Y1028700D01*
X3784602Y4127500D02*
G01*
X6204460Y6547357D01*
X6204460Y8122158D01*
X7670802Y9588500D01*
X3784602Y4889500D02*
G01*
X5011879Y6116777D01*
X5011879Y7183577D01*
X7416802Y9588500D01*
X3784602Y5143500D02*
G01*
X4415589Y5774486D01*
X4415589Y6841286D01*
X7162802Y9588500D01*
X6540451Y5631306D02*
G01*
X6540451Y2506446D01*
X8192899Y853998D01*
X8192899Y1107998D02*
G01*
X8057111Y1243787D01*
X8057111Y4110278D01*
X7214389Y4953000D01*
X7155766Y4953000D01*
X6838927Y5269839D01*
X6838927Y5331180D01*
X3784602Y7683500D02*
G01*
X3784602Y8094700D01*
X2516050Y9363252D01*
X2487805Y9363252D01*
X2487805Y9476206D02*
G01*
X2487805Y9363252D01*
X8349084Y4089654D02*
G01*
X8349084Y1400098D01*
X8305878Y1356893D01*
X8192899Y1356893D02*
G01*
X8305878Y1356893D01*
X8712202Y4318000D02*
G01*
X9857209Y5463006D01*
X9857209Y7849996D01*
X2679702Y1028700D02*
G01*
X2679702Y1876196D01*
X1941095Y2614803D01*
X8712202Y4572000D02*
G01*
X9603209Y5463006D01*
X9603209Y7849996D01*
X1941095Y2614803D02*
G01*
X1941095Y2309393D01*
X1689102Y2057400D01*
X9918702Y2324100D02*
G01*
X10031173Y2436571D01*
X10031173Y2867101D01*
X9953576Y2944698D01*
X9898839Y2944698D01*
X8599909Y4243628D01*
X8599909Y4459706D01*
X8712202Y4572000D01*
X9758733Y8445500D02*
G01*
X9842502Y8445500D01*
X9603209Y7849996D02*
G01*
X9758733Y8005521D01*
X9758733Y8445500D01*
X9758733Y8445500D02*
G01*
X9758733Y8905367D01*
X9663737Y9000362D01*
X9663737Y9439071D01*
X9884539Y9659874D01*
X3784602Y4381500D02*
G01*
X2487805Y5678296D01*
X2487805Y9222206D01*
X1765302Y9182100D02*
G01*
X1765302Y5130800D01*
X3784602Y3111500D01*
X8864602Y1587500D02*
G01*
X9341512Y1587500D01*
X10076207Y2322195D01*
X10076207Y7694472D01*
X9986215Y7784464D01*
X9986215Y8958249D01*
X9884539Y9059926D01*
D11*
G01*
X9884536Y9059926D03*
G01*
X9884536Y9659874D03*
D12*
G01*
X9419463Y9309862D03*
D13*
G01*
X1943100Y2057400D03*
D14*
G01*
X1689100Y2057400D03*
D13*
G01*
X1765300Y9182100D03*
D14*
G01*
X1765300Y9436100D03*
D13*
G01*
X9588500Y8445500D03*
D14*
G01*
X9842500Y8445500D03*
D13*
G01*
X8864600Y1587500D03*
D14*
G01*
X8864600Y1333500D03*
D16*
G01*
X2487777Y9476206D03*
D17*
G01*
X2487802Y9222206D03*
G01*
X2487802Y9725101D03*
G01*
X2487802Y9979101D03*
D16*
G01*
X1687093Y2614777D03*
D17*
G01*
X1941093Y2614803D03*
G01*
X1438198Y2614803D03*
G01*
X1184198Y2614803D03*
D16*
G01*
X9857206Y7849996D03*
D17*
G01*
X9603206Y7849996D03*
G01*
X10106101Y7849996D03*
G01*
X10360101Y7849996D03*
D16*
G01*
X8192922Y1356893D03*
D17*
G01*
X8192897Y1610893D03*
G01*
X8192897Y1107998D03*
G01*
X8192897Y853998D03*
D18*
G01*
X8712200Y5842000D03*
G01*
X8712200Y6096000D03*
G01*
X8712200Y6350000D03*
G01*
X8712200Y6604000D03*
G01*
X8712200Y6858000D03*
G01*
X8712200Y7112000D03*
G01*
X8712200Y5588000D03*
G01*
X8712200Y5334000D03*
G01*
X8712200Y5080000D03*
G01*
X8712200Y4826000D03*
G01*
X8712200Y4572000D03*
G01*
X8712200Y4318000D03*
G01*
X7188200Y4318000D03*
G01*
X7188200Y4572000D03*
G01*
X7188200Y4826000D03*
G01*
X7188200Y5080000D03*
G01*
X7188200Y5334000D03*
G01*
X7188200Y5588000D03*
G01*
X7188200Y7112000D03*
G01*
X7188200Y6858000D03*
G01*
X7188200Y6604000D03*
G01*
X7188200Y6350000D03*
G01*
X7188200Y6096000D03*
G01*
X7188200Y5842000D03*
G01*
X7162800Y9588500D03*
G01*
X7416800Y9588500D03*
G01*
X7670800Y9588500D03*
G01*
X7924800Y9588500D03*
G01*
X3441700Y1028700D03*
G01*
X3187700Y1028700D03*
G01*
X2933700Y1028700D03*
G01*
X2679700Y1028700D03*
G01*
X9918700Y3086100D03*
G01*
X9918700Y2832100D03*
G01*
X9918700Y2578100D03*
G01*
X9918700Y2324100D03*
G01*
X1409700Y7277100D03*
G01*
X1409700Y7531100D03*
G01*
X1409700Y7785100D03*
G01*
X1409700Y8039100D03*
D19*
G01*
X3784600Y7683500D03*
D18*
G01*
X3784600Y7429500D03*
G01*
X3784600Y7175500D03*
G01*
X3784600Y6921500D03*
G01*
X3784600Y6667500D03*
G01*
X3784600Y6413500D03*
G01*
X3784600Y6159500D03*
G01*
X3784600Y5905500D03*
G01*
X3784600Y5651500D03*
G01*
X3784600Y5397500D03*
G01*
X3784600Y5143500D03*
G01*
X3784600Y4889500D03*
G01*
X3784600Y4635500D03*
G01*
X3784600Y4381500D03*
G01*
X3784600Y4127500D03*
G01*
X3784600Y3873500D03*
G01*
X3784600Y3111500D03*
G01*
X3784600Y3365500D03*
G01*
X3784600Y3619500D03*
G01*
X6320586Y3619500D03*
G01*
X6320586Y3365500D03*
G01*
X6320586Y3111500D03*
G01*
X6320586Y3873500D03*
G01*
X6320586Y4127500D03*
G01*
X6320586Y4381500D03*
G01*
X6320586Y4635500D03*
G01*
X6320586Y4889500D03*
G01*
X6320586Y5143500D03*
G01*
X6320586Y5397500D03*
G01*
X6320586Y5651500D03*
G01*
X6320586Y5905500D03*
G01*
X6320586Y6159500D03*
G01*
X6320586Y6413500D03*
G01*
X6320586Y6667500D03*
G01*
X6320586Y6921500D03*
G01*
X6320586Y7175500D03*
G01*
X6320586Y7429500D03*
G01*
X6320586Y7683500D03*
D20*
G01*
X8349081Y4089654D03*
G01*
X6838924Y5331180D03*
G01*
X6540449Y5631306D03*
M02*
